<svg xmlns="http://www.w3.org/2000/svg"><symbol id="mecha-stilt" viewBox="0 0 252 252"><path d="M97.3 155.3H118v13.04H97.3zm24.8 0h13.2v13.04h-13.2zm17.4 0h20.7v13.04h-20.7zM128.7 69c-24.2 0-44.5 14.7-45.5 41.4h91.1C173.2 83.7 152.9 69 128.7 69zm-48.8 86.3h13.2v13.04H79.9zm-12.4-4.2H190v-36.6H67.5zm60.2-14.1h50.5a2.1 2.1 0 0 1 0 4.1h-50.5a2.1 2.1 0 1 1 0-4.1z"/><path d="M128.7-.1l-109.1 63v126l109.1 63 109.1-63v-126zm65.4 153.3a2 2 0 0 1-2.1 2.1h-10.3v13H192a2.1 2.1 0 1 1 0 4.1H65.4a2.1 2.1 0 0 1 0-4.1h10.3v-13H65.4a2 2 0 0 1-2.1-2.1v-40.7a2 2 0 0 1 2.1-2.1H79c1-29.4 23-45.5 49.7-45.5s48.6 16.1 49.7 45.5H192a2 2 0 0 1 2.1 2.1z"/><path d="M164.3 155.3h13.2v13.04h-13.2z"/></symbol><symbol id="space-bubble" viewBox="0 0 256 256"><path d="M98 149.9H84.3l-18.2 21.5 2.9 4.2 35-18.4-6-7.3zM72.7 135h113.2v10.76H72.7zm99-4.1a50 50 0 0 0 2.5-15.7 44.8 44.8 0 0 0-89.6 0c0 5.4.4 11 2.5 15.7zm-84.5 39.9h28.2l-8.5-10.3-19.7 10.3zm71.2-20.9l-6.2 7.3 35.2 18.4 2.9-3.9-18.2-21.8h-13.7z"/><path d="M128.2 2.4l-109.1 63v126l109.1 63 109.1-63v-126zm66.2 170.3l-4.8 6.8a2.2 2.2 0 0 1-2.7.6L177 175H79.2l-9.9 5.2a2.3 2.3 0 0 1-2.7-.6l-4.8-6.8a2.2 2.2 0 0 1 .2-2.5L79.2 150h-8.5a2 2 0 0 1-2.1-2.1V133a2 2 0 0 1 2.1-2.1h12a57.8 57.8 0 0 1-2.3-15.7 48.9 48.9 0 0 1 97.9 0 50.8 50.8 0 0 1-2.3 15.7h12a2 2 0 0 1 2.1 2.1v14.9a2 2 0 0 1-2.1 2.1h-10.5l17 20.3a2.2 2.2 0 0 1-.1 2.4z"/><path d="M141 170.8h28.2l-19.7-10.3-8.5 10.3zm-37.6-20.9l17.4 20.9h14.9l17.3-20.9h-49.6z"/></symbol><symbol id="super-dome" viewBox="0 0 252 252"><path d="M68.5 145.9h55.7v22.97H68.5zm55.6-19.7V84.4l-29.8 41.8h29.8zm4.2-46.2v46.1h57.1A61.5 61.5 0 0 0 128.3 80zm0 65.9h9.3v22.97h-9.3zm-6.2-65.6c-26.5 1.7-48.6 20.9-55 45.9h22.1z"/><path d="M126.2.4l-109.1 63v126l109.1 63 109.1-63v-126zm89.2 145.4h-27.3v25a2 2 0 0 1-2.1 2.2H66.4a2 2 0 0 1-2.1-2.1v-25H37a2.1 2.1 0 0 1 0-4.1h15.5v-13.5a2 2 0 0 1 2.1-2.1h8.1A65.6 65.6 0 0 1 126 75.9c.2-.2.4-.2.8 0 30.6.2 56.1 21.7 62.9 50.3h8.1a2 2 0 0 1 2.1 2.1v13.5h15.5a2.1 2.1 0 1 1 0 4.1z"/><path d="M56.7 130.3h139.1v11.38H56.7zm85 15.6h42.2v22.97h-42.2z"/></symbol></svg>